<svg id="visual" viewBox="0 0 1920 1080" width="1920" height="1080" xmlns="http://www.w3.org/2000/svg" xmlns:xlink="http://www.w3.org/1999/xlink" version="1.1"><rect x="0" y="0" width="1920" height="1080" fill="#eebe71"></rect><defs><linearGradient id="grad1_0" x1="43.8%" y1="100%" x2="100%" y2="0%"><stop offset="14.444444444444446%" stop-color="#eebe71" stop-opacity="1"></stop><stop offset="85.55555555555554%" stop-color="#eebe71" stop-opacity="1"></stop></linearGradient></defs><defs><linearGradient id="grad2_0" x1="0%" y1="100%" x2="56.3%" y2="0%"><stop offset="14.444444444444446%" stop-color="#eebe71" stop-opacity="1"></stop><stop offset="85.55555555555554%" stop-color="#eebe71" stop-opacity="1"></stop></linearGradient></defs><g transform="translate(1920, 1080)"><path d="M-864 0C-782.6 -73 -701.2 -146 -660 -214.5C-618.9 -282.9 -618.1 -346.9 -607.6 -441.4C-597.1 -535.9 -577 -661 -507.8 -699C-438.7 -737 -320.6 -687.9 -227.7 -700.9C-134.9 -713.9 -67.5 -789 0 -864L0 0Z" fill="#ece3d4"></path></g><g transform="translate(0, 0)"><path d="M864 0C811.4 75.8 758.7 151.5 740.9 240.7C723 329.9 740 432.5 699 507.8C657.9 583.2 558.8 631.2 467.3 643.2C375.7 655.2 291.7 631.1 215.1 661.9C138.4 692.7 69.2 778.4 0 864L0 0Z" fill="#ece3d4"></path></g></svg>